<svg width="512" height="512" viewBox="0 0 512 512" fill="none" xmlns="http://www.w3.org/2000/svg">
  <defs>
    <linearGradient id="bg" x1="88" y1="72" x2="424" y2="440" gradientUnits="userSpaceOnUse">
      <stop stop-color="#FF8BB0"/>
      <stop offset="1" stop-color="#F45C8C"/>
    </linearGradient>
    <linearGradient id="shine" x1="160" y1="128" x2="320" y2="352" gradientUnits="userSpaceOnUse">
      <stop stop-color="#FFFFFF"/>
      <stop offset="1" stop-color="#FFE8F0"/>
    </linearGradient>
  </defs>
  <rect x="48" y="48" width="416" height="416" rx="104" fill="url(#bg)"/>
  <path d="M156 176C156 149.49 177.49 128 204 128H308C334.51 128 356 149.49 356 176V336C356 362.51 334.51 384 308 384H204C177.49 384 156 362.51 156 336V176Z" fill="white" opacity="0.18"/>
  <path d="M206 160L342 246C349.993 251.054 349.993 262.946 342 268L206 354C197.676 359.264 186.8 353.283 186.8 343.432V170.568C186.8 160.717 197.676 154.736 206 160Z" fill="url(#shine)"/>
  <path d="M294 151H338" stroke="white" stroke-width="28" stroke-linecap="round" opacity="0.42"/>
  <path d="M318 194H374" stroke="white" stroke-width="28" stroke-linecap="round" opacity="0.34"/>
  <path d="M160 388H292" stroke="white" stroke-width="24" stroke-linecap="round" opacity="0.28"/>
</svg>
